<svg width="33" height="22" viewBox="0 0 33 22" fill="none" xmlns="http://www.w3.org/2000/svg">
<g clip-path="url(#clip0_31_2029)">
<path d="M33.0034 11.0158C33.0034 16.809 28.4353 21.5018 22.8015 21.5018C17.1677 21.5018 12.5996 16.809 12.5996 11.0158C12.5996 5.22256 17.1606 0.529694 22.7944 0.529694C28.4282 0.529694 33.0034 5.22256 33.0034 11.0158Z" fill="#F79F1A"/>
<path d="M20.4077 11.0158C20.4077 16.809 15.8396 21.5018 10.2058 21.5018C4.57203 21.5018 0.00390625 16.809 0.00390625 11.0158C0.00390625 5.22256 4.57203 0.529694 10.2058 0.529694C15.8396 0.529694 20.4077 5.22256 20.4077 11.0158Z" fill="#EA001B"/>
<path d="M16.5002 2.75952C14.1202 4.67602 12.5928 7.66371 12.5928 11.0158C12.5928 14.3678 14.1202 17.3555 16.5002 19.272C18.8802 17.3555 20.4076 14.3678 20.4076 11.0158C20.4076 7.66371 18.8802 4.6833 16.5002 2.75952Z" fill="#FF5F01"/>
</g>
<defs>
<clipPath id="clip0_31_2029">
<rect width="33" height="22" fill="white"/>
</clipPath>
</defs>
</svg>
