<svg width="44" height="44" viewBox="0 0 44 44" fill="none" xmlns="http://www.w3.org/2000/svg">
<g clip-path="url(#clip0_31_2033)">
<path fill-rule="evenodd" clip-rule="evenodd" d="M17.6645 15.8211L15.4151 29.1047H19.0139L21.2636 15.8211H17.6645ZM12.3872 15.8211L8.95598 24.9575L8.55011 22.9901L8.5504 22.9907L8.46096 22.5498C8.04569 21.6898 7.08393 20.0553 5.26785 18.6604C4.73094 18.2481 4.18971 17.8962 3.6665 17.5957L6.78494 29.1047H10.5346L16.2606 15.8211H12.3872ZM26.4328 19.5089C26.4328 18.0071 29.9377 18.2 31.4778 19.0155L31.9913 16.1626C31.9913 16.1626 30.4064 15.5833 28.7543 15.5833C26.9682 15.5833 22.7271 16.3339 22.7271 19.9808C22.7271 23.413 27.7049 23.4556 27.7049 25.2576C27.7049 27.0595 23.2403 26.7375 21.7669 25.6008L21.2315 28.5828C21.2315 28.5828 22.8384 29.3333 25.2942 29.3333C27.7498 29.3333 31.4554 28.1109 31.4554 24.7857C31.4554 21.332 26.4328 21.0104 26.4328 19.5089ZM41.1186 15.8211H38.225C36.8889 15.8211 36.5636 16.811 36.5636 16.811L31.1965 29.1047H34.9477L35.698 27.1317H40.2733L40.6953 29.1047H43.9998L41.1186 15.8211ZM36.7352 24.4058L38.6263 19.4347L39.6902 24.4058H36.7352Z" fill="#005BAC"/>
<path fill-rule="evenodd" clip-rule="evenodd" d="M7.88415 16.8071C7.88415 16.8071 7.7293 15.5833 6.0762 15.5833H0.0703487L0 15.8133C0 15.8133 2.88689 16.3687 5.6565 18.4493C8.30325 20.4378 9.16667 22.9167 9.16667 22.9167L7.88415 16.8071Z" fill="#F6AC1D"/>
</g>
<defs>
<clipPath id="clip0_31_2033">
<rect width="44" height="44" fill="white"/>
</clipPath>
</defs>
</svg>
